<svg xmlns="http://www.w3.org/2000/svg" xmlns:xlink="http://www.w3.org/1999/xlink" width="304" height="150" viewBox="0 0 304 150"><defs><style>.a{fill:#ff8c00;}.b{fill:#393939;}.c{fill:#fff;}.d,.e{fill:#fce300;}.d,.f,.h{opacity:0.68;}.e,.g,.i{opacity:0.6;}.f,.g{fill:#4fff06;}.h,.i{fill:#db3838;}.j{filter:url(#a);}</style><filter id="a" x="84" y="0" width="150" height="150" filterUnits="userSpaceOnUse"><feOffset dy="3" input="SourceAlpha"/><feGaussianBlur stdDeviation="3" result="b"/><feFlood flood-opacity="0.161"/><feComposite operator="in" in2="b"/><feComposite in="SourceGraphic"/></filter></defs><g transform="translate(-92.062 -88.837)"><path class="a" d="M13.119,0H69.038C127.7,0,0,127.7,0,63.085V13.119A13.119,13.119,0,0,1,13.119,0Z" transform="translate(182.975 92.837)"/><path class="b" d="M13.119,0H69.038C127.7,0,0,127.7,0,63.085V13.119A13.119,13.119,0,0,1,13.119,0Z" transform="translate(318.71 229.038) rotate(180)"/><g class="j" transform="matrix(1, 0, 0, 1, 92.06, 88.84)"><rect class="c" width="132" height="132" rx="11" transform="translate(93 6)"/></g><circle class="d" cx="4" cy="4" r="4" transform="translate(138.062 113.837)"/><ellipse class="e" cx="4" cy="4.5" rx="4" ry="4.5" transform="translate(388.062 154.837)"/><circle class="f" cx="2.5" cy="2.5" r="2.5" transform="translate(92.062 145.837)"/><ellipse class="g" cx="2.5" cy="3" rx="2.5" ry="3" transform="translate(391.062 114.837)"/><circle class="h" cx="4" cy="4" r="4" transform="translate(135.062 192.837)"/><circle class="i" cx="4" cy="4" r="4" transform="translate(360.062 192.837)"/></g></svg>