<svg xmlns="http://www.w3.org/2000/svg" width="20.399" height="18.299" viewBox="0 0 20.399 18.299"><defs><style>.a{fill:rgba(0,0,0,0.57);}</style></defs><g transform="translate(0)"><path class="a" d="M-2932.306,978.46l.151-.023c.089.211.19.417.264.633.224.653.431,1.312.658,1.964a.55.55,0,0,0,.68.4.582.582,0,0,0,.432-.664,1.857,1.857,0,0,0-.051-.248,18.023,18.023,0,0,0-2.054-4.711.655.655,0,0,0-.62-.361c-.776,0-1.553-.02-2.327.015a.787.787,0,0,0-.562.3,17.466,17.466,0,0,0-2.149,4.9.573.573,0,0,0,.319.722.6.6,0,0,0,.79-.437c.224-.653.426-1.314.652-1.966a5.887,5.887,0,0,1,.3-.628,8.047,8.047,0,0,1-.415,3.2,17.424,17.424,0,0,0-.534,1.7.608.608,0,0,0,.634.846c.225.006.451,0,.662,0a.78.78,0,0,1,.029.12q0,.946.005,1.891c0,.635,0,.635-.6.844a.594.594,0,0,0-.44.728.562.562,0,0,0,.736.407c.308-.063.612-.146.916-.23a.642.642,0,0,0,.552-.738c0-.873,0-1.746,0-2.619v-.383h.505v.413c0,.849,0,1.7,0,2.546,0,.3.064.589.359.695a7.789,7.789,0,0,0,1.262.324.5.5,0,0,0,.6-.409.541.541,0,0,0-.336-.681c-.164-.073-.353-.09-.518-.161-.08-.035-.187-.135-.188-.207-.013-.833-.008-1.667-.008-2.54.225,0,.416,0,.606,0,.645,0,.893-.347.7-.974-.243-.786-.547-1.558-.722-2.359C-2932.18,980.017-2932.215,979.232-2932.306,978.46Zm-12.733,3.641c.529-.116.668-.3.646-.838-.007-.181-.026-.362-.041-.544q-.118-1.426-.236-2.852l.089-.036a10.383,10.383,0,0,1,.532,1.243c.188.65.3,1.323.456,1.982a.559.559,0,0,0,.65.444.548.548,0,0,0,.5-.642,18.171,18.171,0,0,0-.712-2.584,27.22,27.22,0,0,0-1.288-2.441.673.673,0,0,0-.667-.4c-.678.011-1.357,0-2.036,0-1.479.015-1.1-.16-1.881,1.116a11.06,11.06,0,0,0-1.47,4.1c-.078.5.072.8.465.876.333.061.6-.169.707-.621.141-.614.248-1.237.422-1.841a9.7,9.7,0,0,1,.482-1.14l.095.029c0,.126.009.252,0,.377q-.125,1.449-.257,2.9c-.04.431.087.745.419.824.242.058.266.176.266.378-.006,1.37,0,2.739,0,4.109,0,.094-.014.189-.021.286-.225.068-.435.124-.641.2a.542.542,0,0,0-.4.645.551.551,0,0,0,.677.45c.286-.046.567-.125.849-.2.591-.15.705-.3.705-.913q0-2.273,0-4.545v-.378h.518v.407c0,1.551.007,3.1,0,4.654a.659.659,0,0,0,.533.715c.3.085.608.167.915.232a.59.59,0,0,0,.757-.388.612.612,0,0,0-.466-.749c-.182-.059-.37-.1-.558-.149Zm5.312-2.6q0-4.179,0-8.358a2.019,2.019,0,0,0-.017-.4.491.491,0,0,0-.507-.432.489.489,0,0,0-.519.416,1.745,1.745,0,0,0-.027.361q0,8.358,0,16.716a1.666,1.666,0,0,0,.037.432.482.482,0,0,0,.55.371.464.464,0,0,0,.468-.424,3.1,3.1,0,0,0,.015-.4Q-2939.727,983.641-2939.728,979.5Zm5.7-4.529a1.977,1.977,0,0,0,2-2.01,1.979,1.979,0,0,0-1.987-1.948,1.975,1.975,0,0,0-1.979,1.956A1.968,1.968,0,0,0-2934.031,974.969Zm-10.51-1.961a1.976,1.976,0,0,0-1.974-2,1.974,1.974,0,0,0-1.989,1.981,1.961,1.961,0,0,0,1.954,1.976A1.968,1.968,0,0,0-2944.541,973.008Z" transform="translate(2950.516 -970.31)"/></g></svg>