<svg xmlns="http://www.w3.org/2000/svg" width="35.223" height="37.661" viewBox="0 0 35.223 37.661">
  <g id="Group_32617" data-name="Group 32617" transform="translate(-784.317 -255)">
    <path id="Rectangle_1" data-name="Rectangle 1" d="M14.355,1.624a5.715,5.715,0,0,1,6.513,0L32.608,9.709a6.119,6.119,0,0,1,2.614,5.045V31.721a5.969,5.969,0,0,1-5.87,6.064H5.87A5.969,5.969,0,0,1,0,31.721V14.754A6.119,6.119,0,0,1,2.614,9.709Z" transform="translate(784.317 254.394)" fill="#f16622"/>
    <path id="Rectangle_2" data-name="Rectangle 2" d="M2.5,0H4.914a2.5,2.5,0,0,1,2.5,2.5V14.829a0,0,0,0,1,0,0H0a0,0,0,0,1,0,0V2.5A2.5,2.5,0,0,1,2.5,0Z" transform="translate(791.993 277.832)" fill="#fff"/>
  </g>
</svg>
