<svg xmlns="http://www.w3.org/2000/svg" width="15.755" height="17.751" viewBox="0 0 15.755 17.751"><defs><style>.a{fill:rgba(0,0,0,0.57);}</style></defs><g transform="translate(0)"><path class="a" d="M-1984.92,1050.9h15.751v.424q0,4.783,0,9.566a1.5,1.5,0,0,1-1.652,1.663q-6.218,0-12.436,0a1.492,1.492,0,0,1-1.663-1.649q0-4.783,0-9.566Zm7.949,4.152h-1.949c-.974,0-1.226.261-1.185,1.227a.483.483,0,0,0,.61.487,1.118,1.118,0,0,0,.506-.454.865.865,0,0,1,1-.427.723.723,0,0,1,.552.836,3.933,3.933,0,0,1-.132.633c-.19.7-.052.864.688.8.038,0,.076-.008.114-.013.473-.059.521-.133.417-.588a5.733,5.733,0,0,1-.167-.858.8.8,0,0,1,.622-.85.777.777,0,0,1,.885.438,2.221,2.221,0,0,0,.123.237.639.639,0,0,0,1.015-.017,1.011,1.011,0,0,0-.924-1.457C-1975.519,1055.046-1976.245,1055.051-1976.971,1055.051Zm3.1,2.77c-.691,0-1.352,0-2.013,0-.055,0-.147.026-.16.063-.222.611-.737.47-1.194.468-.354,0-.624-.127-.681-.515h-2.169v1.277h6.217Zm-7.141,1.552c.08.443.271.585.788.586q2.946,0,5.891,0c.229,0,.46.01.688-.011a.532.532,0,0,0,.538-.575Zm.92-2.17c.73,0,1.429,0,2.128,0,.072,0,.2-.021.206-.048a1.751,1.751,0,0,0,.063-.738.63.63,0,0,0-.486-.33.76.76,0,0,0-.567.277c-.452.672-.611.754-1.344.5Zm6.275-.213-.1-.09c-.685.188-.941.091-1.284-.508a.546.546,0,0,0-.658-.321.561.561,0,0,0-.441.63c.02.192-.089.5.294.5.648,0,1.3.007,1.944-.01C-1973.976,1057.191-1973.9,1057.061-1973.813,1056.99Zm-2.4.467a4.789,4.789,0,0,0,2.391,0Zm-1.624.1c0-.031,0-.061,0-.092h-2.255c0,.031,0,.061,0,.092Zm1.767-3.213.181.472a1.816,1.816,0,0,0,.121-.451,1.921,1.921,0,0,0-.109-.465Zm-.727.026-.182-.469a1.827,1.827,0,0,0-.119.453,1.917,1.917,0,0,0,.111.464Zm-1.2.524v-1.044A.868.868,0,0,0-1978,1054.9Zm-1.212-.084c.2-.092.239-.4.125-.9C-1979.285,1054-1979.327,1054.306-1979.212,1054.811Zm4.595-.446-.189-.464a2.049,2.049,0,0,0-.1.475,1.783,1.783,0,0,0,.127.444Z" transform="translate(1984.92 -1044.804)"/><path class="a" d="M-1979.385,997.347a1.13,1.13,0,0,1-.276,1.079,1.113,1.113,0,0,0,.1,1.61,1.187,1.187,0,0,0,1.63-.021,1.17,1.17,0,0,0,.108-1.593c-.358-.45-.362-.463-.282-1.077h2.264c.018.37.12.706-.231,1.036a1.15,1.15,0,0,0,.072,1.675,1.225,1.225,0,0,0,1.692-.1,1.16,1.16,0,0,0-.094-1.646c-.322-.282-.13-.614-.2-.954h2.31a1.127,1.127,0,0,1-.262,1.075,1.129,1.129,0,0,0,.093,1.613,1.214,1.214,0,0,0,1.637-.016,1.133,1.133,0,0,0,.069-1.615,1.1,1.1,0,0,1-.277-1.026,1.477,1.477,0,0,1,1.924,1.391c.021.688,0,1.377,0,2.066a.721.721,0,0,1-.03.133h-15.684a22.287,22.287,0,0,1,.02-2.475c.1-.848.9-1.286,1.868-1.138a1.1,1.1,0,0,1-.252,1.028,1.141,1.141,0,0,0,.129,1.7,1.2,1.2,0,0,0,1.657-.141,1.152,1.152,0,0,0-.107-1.644c-.32-.283-.122-.612-.186-.949Z" transform="translate(1984.851 -995.331)"/><path class="a" d="M-1911.848,973.065c0-.458-.014-.916.009-1.373.006-.121.125-.237.193-.355.07.116.2.23.2.348.017.89,0,1.781.018,2.671a.8.8,0,0,0,.167.425.56.56,0,0,1-.012.76.544.544,0,0,1-.756,0,.558.558,0,0,1,0-.758.8.8,0,0,0,.169-.42C-1911.834,973.931-1911.848,973.5-1911.848,973.065Z" transform="translate(1917.743 -971.333)"/><path class="a" d="M-1865.678,973.015c0-.458-.014-.917.011-1.373.006-.115.141-.223.217-.333.062.112.175.223.177.335.015.89,0,1.781.017,2.671a.861.861,0,0,0,.18.454.536.536,0,0,1,0,.729.524.524,0,0,1-.752.03.477.477,0,0,1-.054-.715.734.734,0,0,0,.2-.614C-1865.679,973.8-1865.678,973.409-1865.678,973.015Z" transform="translate(1875.12 -971.306)"/><path class="a" d="M-1818.959,973.027c0,.357,0,.713,0,1.07a.844.844,0,0,0,.22.719.466.466,0,0,1-.091.708.488.488,0,0,1-.695-.021.465.465,0,0,1-.041-.713.7.7,0,0,0,.208-.6c0-.841-.01-1.681.008-2.521,0-.128.132-.253.2-.38.063.122.173.242.179.367C-1818.946,972.11-1818.959,972.569-1818.959,973.027Z" transform="translate(1832.362 -971.285)"/><path class="a" d="M-1958.111,973.036c0-.471-.011-.943.009-1.413,0-.112.115-.22.177-.331.071.113.2.225.2.339.017.9,0,1.808.017,2.712a.675.675,0,0,0,.16.382.55.55,0,0,1,0,.785.513.513,0,0,1-.727,0,.56.56,0,0,1,0-.786.713.713,0,0,0,.154-.389C-1958.1,973.9-1958.111,973.469-1958.111,973.036Z" transform="translate(1960.459 -971.291)"/><path class="a" d="M-1871.171,1136.558h2.391" transform="translate(1879.88 -1123.904)"/></g></svg>