<svg xmlns="http://www.w3.org/2000/svg" width="19.826" height="16.219" viewBox="0 0 19.826 16.219"><defs><style>.a{fill:none;stroke:#fff;stroke-width:0.5px;}.b{fill:#fff;}</style></defs><g transform="translate(-266 -577.109)"><line class="a" y2="16.014" transform="translate(285.576 577.109)"/><g transform="translate(266 577.785)"><path class="b" d="M8.884,13.348v2.19a.931.931,0,0,0,.131-.025c1.579-.63,3.161-1.254,4.737-1.9a1.109,1.109,0,0,0,.691-1.139q-.006-5.632,0-11.265A1.114,1.114,0,0,0,13.233,0c-.811,0-1.623,0-2.434,0Q7.652,0,4.506,0A1.1,1.1,0,0,0,3.331.951c-.039.41-.008.826-.008,1.248H4.443V1.131h8.819c-.177.092-.276.146-.376.2-1.231.618-2.458,1.244-3.7,1.843A.491.491,0,0,0,8.87,3.7c.009,2.515.006,5.03.007,7.544v.967H4.409v-1.07H3.314c0,.3,0,.572,0,.849,0,.946.408,1.36,1.346,1.358C6.049,13.347,7.438,13.348,8.884,13.348Zm-1.2-6.635L4.423,3.428V5.562H0V7.8H4.448V9.936Z" transform="translate(0 0.005)"/></g></g></svg>