<svg xmlns="http://www.w3.org/2000/svg" width="18.091" height="16.287" viewBox="0 0 18.091 16.287"><defs><style>.a{fill:rgba(0,0,0,0.57);}</style></defs><g transform="translate(0 0)"><path class="a" d="M-2284.781,1000h-18.041v13.035h11.984v-.733h-11.238v-9.153c.139.077.246.131.349.193q3.8,2.3,7.6,4.607a.511.511,0,0,0,.628.008q3.786-2.325,7.587-4.622c.118-.072.241-.135.421-.236v5.08h.715Zm-2.018,13.5c0-1.047.045-2.079-.015-3.1a1.37,1.37,0,0,0-1.438-1.283,1.387,1.387,0,0,0-1.364,1.439c-.015,1.145-.016,2.291.006,3.436a2.384,2.384,0,0,0,1.582,2.153,2.435,2.435,0,0,0,3.288-2.287c.02-1.369,0-2.739,0-4.108a2.007,2.007,0,0,0-.032-.25h-.769c0,.159,0,.306,0,.452,0,1.357.02,2.714-.024,4.07a1.6,1.6,0,0,1-2.007,1.457,1.661,1.661,0,0,1-1.27-1.681c-.021-1.045-.007-2.091,0-3.137a1.281,1.281,0,0,1,.062-.365.56.56,0,0,1,.593-.417.563.563,0,0,1,.572.493,2.954,2.954,0,0,1,.023.484c0,.88,0,1.76,0,2.651Z" transform="translate(2302.822 -1000)"/></g></svg>