<svg xmlns="http://www.w3.org/2000/svg" xmlns:xlink="http://www.w3.org/1999/xlink" width="104.673" height="53.361" viewBox="0 0 104.673 53.361"><defs><style>.a,.d{fill:none;}.b{fill:#f90;}.b,.c,.f{fill-rule:evenodd;}.c{fill:#808184;}.d{stroke:#ffc51f;stroke-miterlimit:2.613;stroke-width:0.216px;}.e{clip-path:url(#a);}</style><clipPath id="a"><rect class="a" width="100.706" height="25.81"/></clipPath></defs><g transform="translate(-164.5 -659.139)"><path class="b" d="M243.914,1408.183a.685.685,0,0,0,.144.468.458.458,0,0,0,.356.163.452.452,0,0,0,.354-.163.693.693,0,0,0,.143-.472.68.68,0,0,0-.143-.464.452.452,0,0,0-.354-.163.458.458,0,0,0-.356.163.685.685,0,0,0-.144.468m-.556-.029a1.113,1.113,0,0,1,.133-.524.912.912,0,0,1,.377-.387,1.111,1.111,0,0,1,.543-.134,1.018,1.018,0,0,1,.76.3,1.048,1.048,0,0,1,.3.765,1.062,1.062,0,0,1-.3.773,1.009,1.009,0,0,1-.754.306,1.184,1.184,0,0,1-.536-.128.872.872,0,0,1-.388-.374A1.25,1.25,0,0,1,243.358,1408.154Zm3.051,1.051h-.54v-2.052h.5v.291a.856.856,0,0,1,.233-.271.437.437,0,0,1,.234-.064.688.688,0,0,1,.357.1l-.167.473a.477.477,0,0,0-.254-.089.305.305,0,0,0-.194.062.434.434,0,0,0-.124.227,3.218,3.218,0,0,0-.046.687Zm2.113,0v-2.83h.54v2.83Zm1.525-1.022a.683.683,0,0,0,.144.468.457.457,0,0,0,.356.163.452.452,0,0,0,.354-.163.692.692,0,0,0,.143-.472.679.679,0,0,0-.143-.464.452.452,0,0,0-.354-.163.457.457,0,0,0-.356.163A.683.683,0,0,0,250.048,1408.183Zm-.556-.029a1.109,1.109,0,0,1,.133-.524.912.912,0,0,1,.377-.387,1.111,1.111,0,0,1,.543-.134,1.019,1.019,0,0,1,.76.3,1.049,1.049,0,0,1,.3.765,1.063,1.063,0,0,1-.3.773,1.01,1.01,0,0,1-.754.306,1.183,1.183,0,0,1-.536-.128.874.874,0,0,1-.388-.374A1.246,1.246,0,0,1,249.492,1408.154Zm2.968-.016a.742.742,0,0,0,.125.477.391.391,0,0,0,.311.151.427.427,0,0,0,.334-.155.673.673,0,0,0,.137-.459.716.716,0,0,0-.131-.473.413.413,0,0,0-.331-.154.4.4,0,0,0-.32.151A.711.711,0,0,0,252.46,1408.138Zm-.485,1.2.619.075a.22.22,0,0,0,.071.151.405.405,0,0,0,.243.059.625.625,0,0,0,.318-.064.26.26,0,0,0,.108-.137.82.82,0,0,0,.025-.249l0-.3a.736.736,0,0,1-.615.335.754.754,0,0,1-.653-.349,1.186,1.186,0,0,1-.189-.687,1.131,1.131,0,0,1,.248-.787.8.8,0,0,1,.617-.272.748.748,0,0,1,.626.334v-.29h.5v1.839a1.818,1.818,0,0,1-.06.542.662.662,0,0,1-.167.282.737.737,0,0,1-.288.16,1.5,1.5,0,0,1-.455.058,1.178,1.178,0,0,1-.738-.179.563.563,0,0,1-.217-.455C251.973,1409.384,251.974,1409.361,251.975,1409.336Zm2.46-.13v-2.052h.54v2.052Zm0-2.328v-.5h.54v.5Zm.9,1.751.544-.083a.391.391,0,0,0,.141.239.473.473,0,0,0,.3.082.537.537,0,0,0,.316-.077.174.174,0,0,0,.071-.146.144.144,0,0,0-.039-.1.427.427,0,0,0-.181-.072,2.928,2.928,0,0,1-.831-.265.53.53,0,0,1-.243-.463.572.572,0,0,1,.21-.449.978.978,0,0,1,.651-.182,1.132,1.132,0,0,1,.624.138.7.7,0,0,1,.281.408l-.509.095a.321.321,0,0,0-.125-.185.454.454,0,0,0-.262-.064.59.59,0,0,0-.308.06.128.128,0,0,0-.062.11.12.12,0,0,0,.054.1,2.04,2.04,0,0,0,.507.153,1.5,1.5,0,0,1,.605.242.5.5,0,0,1,.17.4.619.619,0,0,1-.235.485,1.038,1.038,0,0,1-.7.2,1.148,1.148,0,0,1-.663-.169A.779.779,0,0,1,255.337,1408.628Zm3.32-1.474v.431h-.371v.831a2.031,2.031,0,0,0,.011.295.122.122,0,0,0,.049.069.153.153,0,0,0,.091.027.693.693,0,0,0,.218-.052l.046.422a1.067,1.067,0,0,1-.426.081.67.67,0,0,1-.263-.049.382.382,0,0,1-.172-.128.511.511,0,0,1-.076-.213,2.736,2.736,0,0,1-.017-.384v-.9H257.5v-.431h.248v-.407l.54-.32v.727Zm.379,2.052v-2.052h.54v2.052Zm0-2.328v-.5h.54v.5Zm2.877.885-.532.095a.384.384,0,0,0-.122-.24.372.372,0,0,0-.247-.08.4.4,0,0,0-.323.14.722.722,0,0,0-.12.469.835.835,0,0,0,.122.516.4.4,0,0,0,.327.151.363.363,0,0,0,.252-.088.531.531,0,0,0,.139-.3l.532.091a.952.952,0,0,1-.317.556.979.979,0,0,1-.63.188.934.934,0,0,1-.714-.284,1.3,1.3,0,0,1,0-1.579.946.946,0,0,1,.723-.283.985.985,0,0,1,.593.161A.892.892,0,0,1,261.913,1407.763Zm.218.865.544-.083a.393.393,0,0,0,.141.239.473.473,0,0,0,.3.082.537.537,0,0,0,.316-.077.174.174,0,0,0,.071-.146.144.144,0,0,0-.039-.1.428.428,0,0,0-.181-.072,2.929,2.929,0,0,1-.831-.265.53.53,0,0,1-.243-.463.572.572,0,0,1,.21-.449.978.978,0,0,1,.651-.182,1.132,1.132,0,0,1,.624.138.7.7,0,0,1,.281.408l-.509.095a.32.32,0,0,0-.125-.185.454.454,0,0,0-.262-.064.589.589,0,0,0-.308.06.128.128,0,0,0-.062.11.12.12,0,0,0,.054.1,2.041,2.041,0,0,0,.507.153,1.5,1.5,0,0,1,.605.242.5.5,0,0,1,.17.4.619.619,0,0,1-.235.485,1.038,1.038,0,0,1-.7.2,1.148,1.148,0,0,1-.663-.169A.779.779,0,0,1,262.131,1408.628Zm2.37.036h.541v.388a1.347,1.347,0,0,1-.04.372.554.554,0,0,1-.153.244.792.792,0,0,1-.285.17l-.105-.225a.382.382,0,0,0,.3-.407h-.26Zm2.046-1.51v.431h-.371v.831a2.058,2.058,0,0,0,.011.295.122.122,0,0,0,.048.069.155.155,0,0,0,.091.027.694.694,0,0,0,.218-.052l.045.422a1.065,1.065,0,0,1-.426.081.673.673,0,0,1-.263-.049.382.382,0,0,1-.172-.128.509.509,0,0,1-.076-.213,2.677,2.677,0,0,1-.017-.384v-.9h-.248v-.431h.248v-.407l.54-.32v.727Zm.9,2.052h-.54v-2.052h.5v.291a.856.856,0,0,1,.232-.271.437.437,0,0,1,.234-.064.687.687,0,0,1,.357.1l-.167.473a.477.477,0,0,0-.254-.089.3.3,0,0,0-.193.062.432.432,0,0,0-.124.227,3.212,3.212,0,0,0-.046.687Zm2.145-.98a3.311,3.311,0,0,1-.329.083,1.01,1.01,0,0,0-.294.094.228.228,0,0,0-.106.191.267.267,0,0,0,.085.2.3.3,0,0,0,.216.083.473.473,0,0,0,.28-.1.343.343,0,0,0,.129-.18,1.085,1.085,0,0,0,.021-.264Zm-.725-.439-.489-.087a.775.775,0,0,1,.285-.445,1.033,1.033,0,0,1,.6-.144,1.3,1.3,0,0,1,.54.086.537.537,0,0,1,.249.218,1.121,1.121,0,0,1,.072.485l-.008.632a2.244,2.244,0,0,0,.026.4,1.16,1.16,0,0,0,.1.275H269.7c-.014-.036-.032-.088-.052-.158-.009-.032-.015-.054-.019-.063a.962.962,0,0,1-.3.2.837.837,0,0,1-.336.069.692.692,0,0,1-.5-.172.57.57,0,0,1-.181-.434.586.586,0,0,1,.083-.31.54.54,0,0,1,.232-.208,1.829,1.829,0,0,1,.43-.126,2.946,2.946,0,0,0,.525-.133v-.055a.289.289,0,0,0-.077-.226.462.462,0,0,0-.292-.067.379.379,0,0,0-.225.058A.4.4,0,0,0,268.862,1407.786Zm3.651,1.419h-.54v-1.046a1.618,1.618,0,0,0-.035-.429.305.305,0,0,0-.114-.152.327.327,0,0,0-.189-.054.439.439,0,0,0-.254.077.388.388,0,0,0-.155.2,1.744,1.744,0,0,0-.042.471v.928h-.54v-2.052h.5v.3a.846.846,0,0,1,1.006-.28.553.553,0,0,1,.226.165.591.591,0,0,1,.106.228,1.658,1.658,0,0,1,.03.364Zm.354-.577.544-.083a.392.392,0,0,0,.141.239.474.474,0,0,0,.3.082.537.537,0,0,0,.316-.077.174.174,0,0,0,.071-.146.144.144,0,0,0-.039-.1.428.428,0,0,0-.181-.072,2.929,2.929,0,0,1-.831-.265.53.53,0,0,1-.243-.463.572.572,0,0,1,.21-.449.978.978,0,0,1,.651-.182,1.132,1.132,0,0,1,.624.138.7.7,0,0,1,.281.408l-.509.095a.32.32,0,0,0-.125-.185.454.454,0,0,0-.262-.064.59.59,0,0,0-.308.06.128.128,0,0,0-.062.11.12.12,0,0,0,.054.1,2.04,2.04,0,0,0,.507.153,1.5,1.5,0,0,1,.605.242.5.5,0,0,1,.17.4.619.619,0,0,1-.235.485,1.038,1.038,0,0,1-.7.2,1.148,1.148,0,0,1-.663-.169A.779.779,0,0,1,272.868,1408.628Zm2.9-.48a.8.8,0,0,0,.137.512.416.416,0,0,0,.332.165.389.389,0,0,0,.313-.152.787.787,0,0,0,.125-.5.749.749,0,0,0-.129-.481.4.4,0,0,0-.319-.157.411.411,0,0,0-.328.154A.688.688,0,0,0,275.77,1408.148Zm-.533-.994h.5v.3a.75.75,0,0,1,.266-.25.741.741,0,0,1,.372-.095.778.778,0,0,1,.6.281,1.137,1.137,0,0,1,.248.781,1.173,1.173,0,0,1-.25.8.778.778,0,0,1-.607.285.682.682,0,0,1-.308-.068,1.03,1.03,0,0,1-.29-.231v1.026h-.54Zm2.854,1.03a.684.684,0,0,0,.144.468.458.458,0,0,0,.356.163.452.452,0,0,0,.354-.163.694.694,0,0,0,.143-.472.68.68,0,0,0-.143-.464.452.452,0,0,0-.354-.163.458.458,0,0,0-.356.163A.684.684,0,0,0,278.092,1408.183Zm-.556-.029a1.11,1.11,0,0,1,.133-.524.911.911,0,0,1,.377-.387,1.111,1.111,0,0,1,.544-.134,1.018,1.018,0,0,1,.76.3,1.047,1.047,0,0,1,.3.765,1.061,1.061,0,0,1-.3.773,1.009,1.009,0,0,1-.753.306,1.185,1.185,0,0,1-.536-.128.872.872,0,0,1-.388-.374A1.247,1.247,0,0,1,277.536,1408.154Zm3.051,1.051h-.54v-2.052h.5v.291a.852.852,0,0,1,.233-.271.437.437,0,0,1,.235-.064.686.686,0,0,1,.357.1l-.167.473a.477.477,0,0,0-.254-.089.3.3,0,0,0-.194.062.434.434,0,0,0-.124.227,3.227,3.227,0,0,0-.045.687Zm1.952-2.052v.431h-.371v.831a2.056,2.056,0,0,0,.011.295.121.121,0,0,0,.048.069.154.154,0,0,0,.092.027.7.7,0,0,0,.218-.052l.045.422a1.065,1.065,0,0,1-.426.081.671.671,0,0,1-.263-.049.383.383,0,0,1-.172-.128.513.513,0,0,1-.076-.213,2.705,2.705,0,0,1-.017-.384v-.9h-.248v-.431h.248v-.407l.54-.32v.727Zm1.506,1.071a3.346,3.346,0,0,1-.329.083,1.008,1.008,0,0,0-.294.094.228.228,0,0,0-.106.191.267.267,0,0,0,.085.2.3.3,0,0,0,.215.083.471.471,0,0,0,.279-.1.342.342,0,0,0,.129-.18,1.07,1.07,0,0,0,.021-.264Zm-.725-.439-.489-.087a.775.775,0,0,1,.285-.445,1.032,1.032,0,0,1,.6-.144,1.3,1.3,0,0,1,.539.086.539.539,0,0,1,.249.218,1.129,1.129,0,0,1,.072.485l-.008.632a2.233,2.233,0,0,0,.026.4,1.14,1.14,0,0,0,.1.275h-.536c-.014-.036-.031-.088-.052-.158a.59.59,0,0,0-.019-.063.962.962,0,0,1-.3.2.837.837,0,0,1-.336.069.692.692,0,0,1-.5-.172.57.57,0,0,1-.181-.434.588.588,0,0,1,.083-.31.539.539,0,0,1,.232-.208,1.833,1.833,0,0,1,.43-.126,2.952,2.952,0,0,0,.525-.133v-.055a.288.288,0,0,0-.077-.226.463.463,0,0,0-.292-.067.38.38,0,0,0-.225.058A.4.4,0,0,0,283.32,1407.786Zm2.725-.632v.431h-.37v.831a2.037,2.037,0,0,0,.01.295.121.121,0,0,0,.048.069.155.155,0,0,0,.091.027.7.7,0,0,0,.218-.052l.045.422a1.063,1.063,0,0,1-.426.081.672.672,0,0,1-.263-.049.381.381,0,0,1-.171-.128.506.506,0,0,1-.076-.213,2.707,2.707,0,0,1-.017-.384v-.9h-.248v-.431h.248v-.407l.54-.32v.727Zm.379,2.052v-2.052h.54v2.052Zm0-2.328v-.5h.54v.5Zm1.525,1.306a.684.684,0,0,0,.144.468.469.469,0,0,0,.711,0,.7.7,0,0,0,.143-.472.682.682,0,0,0-.143-.464.469.469,0,0,0-.711,0A.684.684,0,0,0,287.949,1408.183Zm-.556-.029a1.111,1.111,0,0,1,.133-.524.911.911,0,0,1,.376-.387,1.111,1.111,0,0,1,.543-.134,1.018,1.018,0,0,1,.76.3,1.048,1.048,0,0,1,.3.765,1.063,1.063,0,0,1-.3.773,1.009,1.009,0,0,1-.754.306,1.184,1.184,0,0,1-.536-.128.872.872,0,0,1-.388-.374A1.247,1.247,0,0,1,287.393,1408.154Zm4.4,1.051h-.54v-1.046a1.611,1.611,0,0,0-.035-.429.3.3,0,0,0-.114-.152.325.325,0,0,0-.189-.054.439.439,0,0,0-.254.077.387.387,0,0,0-.154.2,1.715,1.715,0,0,0-.042.471v.928h-.54v-2.052h.5v.3a.846.846,0,0,1,1.006-.28.55.55,0,0,1,.225.165.589.589,0,0,1,.107.228,1.655,1.655,0,0,1,.03.364Zm3.866-.98a3.33,3.33,0,0,1-.329.083,1.006,1.006,0,0,0-.294.094.228.228,0,0,0-.106.191.268.268,0,0,0,.085.2.3.3,0,0,0,.216.083.472.472,0,0,0,.28-.1.343.343,0,0,0,.129-.18,1.075,1.075,0,0,0,.021-.264Zm-.725-.439-.489-.087a.776.776,0,0,1,.285-.445,1.034,1.034,0,0,1,.6-.144,1.3,1.3,0,0,1,.54.086.537.537,0,0,1,.249.218,1.121,1.121,0,0,1,.072.485l-.008.632a2.251,2.251,0,0,0,.026.4,1.145,1.145,0,0,0,.1.275h-.536q-.021-.053-.052-.158a.627.627,0,0,0-.019-.063.96.96,0,0,1-.3.2.838.838,0,0,1-.336.069.692.692,0,0,1-.5-.172.57.57,0,0,1-.181-.434.583.583,0,0,1,.083-.31.539.539,0,0,1,.232-.208,1.834,1.834,0,0,1,.43-.126,2.952,2.952,0,0,0,.525-.133v-.055a.289.289,0,0,0-.077-.226.462.462,0,0,0-.292-.067.38.38,0,0,0-.225.058A.4.4,0,0,0,294.929,1407.786Zm3.651,1.419h-.54v-1.046a1.621,1.621,0,0,0-.034-.429.307.307,0,0,0-.114-.152.326.326,0,0,0-.189-.054.439.439,0,0,0-.254.077.387.387,0,0,0-.155.2,1.735,1.735,0,0,0-.042.471v.928h-.54v-2.052h.5v.3a.846.846,0,0,1,1.006-.28.551.551,0,0,1,.225.165.592.592,0,0,1,.106.228,1.655,1.655,0,0,1,.03.364Zm.981-1.065a.951.951,0,0,0,.09.476.407.407,0,0,0,.365.214.4.4,0,0,0,.317-.16.742.742,0,0,0,.131-.478.811.811,0,0,0-.127-.51.4.4,0,0,0-.325-.156.4.4,0,0,0-.322.154A.7.7,0,0,0,299.561,1408.14Zm1.443,1.065h-.5v-.3a.839.839,0,0,1-.3.264.745.745,0,0,1-.345.088.78.78,0,0,1-.606-.285,1.163,1.163,0,0,1-.252-.8,1.147,1.147,0,0,1,.245-.794.8.8,0,0,1,.62-.271.767.767,0,0,1,.594.286v-1.021H301Zm2.061-1.065a.953.953,0,0,0,.09.476.408.408,0,0,0,.366.214.4.4,0,0,0,.317-.16.742.742,0,0,0,.13-.478.809.809,0,0,0-.127-.51.4.4,0,0,0-.325-.156.4.4,0,0,0-.322.154A.7.7,0,0,0,303.065,1408.14Zm1.443,1.065h-.5v-.3a.844.844,0,0,1-.3.264.744.744,0,0,1-.344.088.78.78,0,0,1-.606-.285,1.162,1.162,0,0,1-.252-.8,1.147,1.147,0,0,1,.245-.794.8.8,0,0,1,.62-.271.765.765,0,0,1,.594.286v-1.021h.54Zm1.746-1.2a.526.526,0,0,0-.121-.359.37.37,0,0,0-.281-.123.375.375,0,0,0-.292.13.5.5,0,0,0-.113.352Zm-.031.549.54.091a.89.89,0,0,1-.328.453.966.966,0,0,1-.561.156.913.913,0,0,1-.789-.35,1.182,1.182,0,0,1-.2-.708,1.139,1.139,0,0,1,.265-.8.872.872,0,0,1,.672-.289.907.907,0,0,1,.72.3,1.343,1.343,0,0,1,.251.927h-1.352a.55.55,0,0,0,.131.375.405.405,0,0,0,.31.135.327.327,0,0,0,.213-.069A.427.427,0,0,0,306.223,1408.557Zm1.01.648v-2.83h.54v2.83Zm1.1,0v-2.052h.54v2.052Zm0-2.328v-.5h.54v.5Zm1.658,2.328-.824-2.052h.567l.386,1.047.112.35c.029-.089.049-.148.056-.176.018-.058.037-.116.058-.174l.39-1.047h.556l-.813,2.052Zm2.845-1.2a.523.523,0,0,0-.121-.359.368.368,0,0,0-.28-.123.374.374,0,0,0-.292.13.5.5,0,0,0-.113.352Zm-.031.549.54.091a.89.89,0,0,1-.328.453.964.964,0,0,1-.561.156.912.912,0,0,1-.789-.35,1.179,1.179,0,0,1-.2-.708,1.138,1.138,0,0,1,.265-.8.872.872,0,0,1,.672-.289.906.906,0,0,1,.72.3,1.343,1.343,0,0,1,.252.927h-1.353a.55.55,0,0,0,.131.375.405.405,0,0,0,.31.135.327.327,0,0,0,.213-.069A.424.424,0,0,0,312.8,1408.557Zm2.284-1.4h.575l.491,1.455.479-1.455h.56l-.722,1.974-.13.357a1.471,1.471,0,0,1-.137.273.583.583,0,0,1-.148.153.638.638,0,0,1-.207.092,1.087,1.087,0,0,1-.277.033,1.463,1.463,0,0,1-.307-.033l-.047-.423a1.232,1.232,0,0,0,.23.025.339.339,0,0,0,.28-.111.771.771,0,0,0,.139-.284l-.755-1.99-.165.467a.476.476,0,0,0-.254-.089.3.3,0,0,0-.193.062.432.432,0,0,0-.124.227,3.213,3.213,0,0,0-.046.687v.633h-.54v-2.052h.5v.291a.857.857,0,0,1,.232-.271.437.437,0,0,1,.234-.064.685.685,0,0,1,.351.1Zm3.355,1.474.544-.083a.393.393,0,0,0,.14.239.475.475,0,0,0,.3.082.537.537,0,0,0,.316-.077.174.174,0,0,0,.071-.146.143.143,0,0,0-.039-.1.429.429,0,0,0-.181-.072,2.929,2.929,0,0,1-.831-.265.53.53,0,0,1-.243-.463.572.572,0,0,1,.21-.449.979.979,0,0,1,.651-.182,1.129,1.129,0,0,1,.624.138.705.705,0,0,1,.281.408l-.509.095a.321.321,0,0,0-.125-.185.453.453,0,0,0-.262-.064.59.59,0,0,0-.308.06.128.128,0,0,0-.062.11.12.12,0,0,0,.054.1,2.026,2.026,0,0,0,.507.153,1.507,1.507,0,0,1,.605.242.5.5,0,0,1,.17.4.619.619,0,0,1-.235.485,1.038,1.038,0,0,1-.7.2,1.149,1.149,0,0,1-.663-.169A.777.777,0,0,1,318.439,1408.628Zm3.6-.621a.523.523,0,0,0-.121-.359.368.368,0,0,0-.28-.123.374.374,0,0,0-.292.13.5.5,0,0,0-.113.352Zm-.031.549.54.091a.89.89,0,0,1-.328.453.964.964,0,0,1-.561.156.912.912,0,0,1-.789-.35,1.179,1.179,0,0,1-.2-.708,1.138,1.138,0,0,1,.265-.8.871.871,0,0,1,.671-.289.906.906,0,0,1,.72.3,1.342,1.342,0,0,1,.252.927h-1.352a.551.551,0,0,0,.131.375.406.406,0,0,0,.31.135.328.328,0,0,0,.213-.069A.424.424,0,0,0,322.007,1408.557Zm3.107.648-.8-1.986-.165.466a.477.477,0,0,0-.254-.089.305.305,0,0,0-.194.062.434.434,0,0,0-.124.227,3.218,3.218,0,0,0-.045.687v.633h-.54v-2.052h.5v.291a.857.857,0,0,1,.232-.271.437.437,0,0,1,.234-.064.686.686,0,0,1,.35.1l-.022-.054h.568l.385,1.047.111.35c.03-.089.049-.148.056-.176.019-.058.037-.116.058-.174l.391-1.047h.556l-.813,2.052Zm1.63,0v-2.052h.54v2.052Zm0-2.328v-.5h.54v.5Zm2.878.885-.532.095a.382.382,0,0,0-.122-.24.371.371,0,0,0-.247-.08.4.4,0,0,0-.323.14.722.722,0,0,0-.12.469.834.834,0,0,0,.122.516.4.4,0,0,0,.327.151.363.363,0,0,0,.252-.088.526.526,0,0,0,.138-.3l.532.091a.949.949,0,0,1-.317.556.978.978,0,0,1-.629.188.934.934,0,0,1-.714-.284,1.3,1.3,0,0,1,0-1.579.946.946,0,0,1,.723-.283.986.986,0,0,1,.593.161A.893.893,0,0,1,329.622,1407.763Zm1.625.245a.524.524,0,0,0-.121-.359.368.368,0,0,0-.28-.123.374.374,0,0,0-.292.13.5.5,0,0,0-.113.352Zm-.032.549.54.091a.889.889,0,0,1-.328.453.966.966,0,0,1-.561.156.912.912,0,0,1-.789-.35,1.178,1.178,0,0,1-.2-.708,1.138,1.138,0,0,1,.265-.8.872.872,0,0,1,.671-.289.906.906,0,0,1,.72.3,1.343,1.343,0,0,1,.252.927h-1.353a.552.552,0,0,0,.131.375.4.4,0,0,0,.31.135.327.327,0,0,0,.213-.069A.424.424,0,0,0,331.216,1408.557Zm.817.071.544-.083a.391.391,0,0,0,.141.239.473.473,0,0,0,.3.082.536.536,0,0,0,.316-.077.174.174,0,0,0,.071-.146.144.144,0,0,0-.039-.1.427.427,0,0,0-.181-.072,2.927,2.927,0,0,1-.831-.265.53.53,0,0,1-.243-.463.571.571,0,0,1,.21-.449.978.978,0,0,1,.651-.182,1.13,1.13,0,0,1,.624.138.706.706,0,0,1,.282.408l-.509.095a.32.32,0,0,0-.125-.185.455.455,0,0,0-.262-.064.588.588,0,0,0-.308.06.128.128,0,0,0-.062.11.119.119,0,0,0,.054.1,2.033,2.033,0,0,0,.507.153,1.506,1.506,0,0,1,.605.242.5.5,0,0,1,.17.4.618.618,0,0,1-.235.485,1.038,1.038,0,0,1-.7.2,1.148,1.148,0,0,1-.662-.169A.778.778,0,0,1,332.033,1408.628Zm-90.953.577v-2.83h1.94v.478h-1.368v.672h1.183V1408h-1.183v1.2Z" transform="translate(-71.59 -698.444)"/><path class="c" d="M231.152,663.157l36.354-.053,1.139,1.632H231.152Z" transform="translate(-62.309 -3.605)"/><path class="c" d="M231.152,715.362l38.765-.053,1.138,1.632h-39.9Z" transform="translate(-62.309 -52.409)"/><path class="c" d="M231.152,773.49l41.519-.053,1.139,1.632H231.152Z" transform="translate(-62.309 -106.749)"/><path class="c" d="M231.152,831.618l43.93-.053,1.139,1.632H231.152Z" transform="translate(-62.309 -161.09)"/><path class="c" d="M231.152,889.746l46.684-.053,1.139,1.632H231.152Z" transform="translate(-62.309 -215.43)"/><path class="c" d="M231.152,947.872l49.439-.053,1.139,1.632H231.152Z" transform="translate(-62.309 -269.768)"/><path class="c" d="M231.152,1006l52.193-.053,1.139,1.632H231.152Z" transform="translate(-62.309 -324.108)"/><path class="c" d="M231.152,1074.7l55.293-.053,1.139,1.632H231.152Z" transform="translate(-62.309 -388.327)"/><path class="b" d="M839.865,659.247H873.5l5.285,7.5H845.137Z" transform="translate(-631.357)"/><path class="d" d="M839.865,659.247H873.5l5.285,7.5H845.137Z" transform="translate(-631.357)"/><path class="b" d="M956.358,822.816h34.136l5.347,7.409H961.7Z" transform="translate(-740.26 -152.911)"/><path class="d" d="M956.358,822.816h34.136l5.347,7.409H961.7Z" transform="translate(-740.26 -152.911)"/><path class="b" d="M1071.874,986.018l30.1.066-5.336,7.41-19.225.013Z" transform="translate(-848.249 -305.478)"/><path class="d" d="M1071.874,986.018l30.1.066-5.336,7.41-19.225.013Z" transform="translate(-848.249 -305.478)"/><path class="b" d="M1529.408,773.55l-8.5-.026,7.632,10.622-7.632,10.7h8.5l7.658-10.674Z" transform="translate(-1268.026 -106.83)"/><path class="d" d="M1529.408,773.55l-8.5-.026,7.632,10.622-7.632,10.7h8.5l7.658-10.674Z" transform="translate(-1268.026 -106.83)"/><g transform="translate(164.5 686.69)"><g class="e" transform="translate(0 0)"><path class="f" d="M252.168,1189l-1.571-4.184L249.07,1189Zm5.465,4.484v-11.21h2.29v9.3h5.668v1.91Zm8.982-3.663,2.226-.221a2.708,2.708,0,0,0,.81,1.64,2.447,2.447,0,0,0,1.65.524,2.529,2.529,0,0,0,1.655-.466,1.388,1.388,0,0,0,.558-1.09,1.041,1.041,0,0,0-.234-.684,1.851,1.851,0,0,0-.818-.487c-.266-.095-.871-.258-1.819-.495a6.16,6.16,0,0,1-2.566-1.124,3,3,0,0,1-.55-3.9,3.063,3.063,0,0,1,1.408-1.147,5.6,5.6,0,0,1,2.218-.395,4.706,4.706,0,0,1,3.193.942,3.342,3.342,0,0,1,1.126,2.516l-2.289.079a1.953,1.953,0,0,0-.623-1.258,2.265,2.265,0,0,0-1.435-.384,2.558,2.558,0,0,0-1.545.411.834.834,0,0,0-.361.705.867.867,0,0,0,.34.687,5.9,5.9,0,0,0,2.092.76,10.927,10.927,0,0,1,2.455.813,3.17,3.17,0,0,1,1.247,1.15,3.372,3.372,0,0,1,.451,1.8,3.333,3.333,0,0,1-.539,1.821,3.227,3.227,0,0,1-1.527,1.26,6.377,6.377,0,0,1-2.461.414,4.9,4.9,0,0,1-3.292-.99A4.3,4.3,0,0,1,266.615,1189.817Zm11.132,3.663v-11.305h2.29v4.453h4.453v-4.453h2.289v11.305h-2.289v-4.942h-4.453v4.942Zm17.4-4.484-1.571-4.184L292.052,1189Zm4.185,4.484h-2.466l-.976-2.574h-4.534l-.939,2.574H288l4.39-11.305H294.8Zm7.219-4.484-1.571-4.184L303.455,1189Zm4.184,4.484h-2.466l-.977-2.574H302.76l-.939,2.574H299.4l4.389-11.305h2.419Zm1.187,0v-11.305h3.429l2.026,7.711,2-7.711h3.437v11.305H320.7l-.008-8.9-2.229,8.9h-2.2l-2.218-8.9-.008,8.9Zm13.105,0v-11.305h2.29v11.305Zm4.529,0v-11.21h2.289v9.3h5.668v1.91Zm19.1-4.484-1.571-4.184L345.558,1189Zm4.185,4.484h-2.466l-.976-2.574h-4.534l-.939,2.574H341.5l4.39-11.305h2.418Zm1.281,0v-11.21h2.29v9.3h5.669v1.91Zm10.263,0-2.658-11.305h2.353l1.681,7.766,2.063-7.766h2.721l1.974,7.9,1.721-7.9h2.3l-2.724,11.305h-2.445l-2.228-8.453-2.245,8.453ZM382.864,1189l-1.571-4.184L379.766,1189Zm4.185,4.484h-2.466l-.976-2.574h-4.534l-.94,2.574h-2.421l4.389-11.305h2.419Zm1.218,0v-11.305h2.29v4.453h4.452v-4.453H397.3v11.305h-2.289v-4.942h-4.452v4.942Zm11.323,0v-11.305h2.29v11.305Zm6.756-9.395v7.484h1.7a6.23,6.23,0,0,0,1.374-.108,2.081,2.081,0,0,0,.918-.471,2.365,2.365,0,0,0,.594-1.089,7.343,7.343,0,0,0,.232-2.071,6.713,6.713,0,0,0-.232-2.011,2.572,2.572,0,0,0-.645-1.094,2.163,2.163,0,0,0-1.052-.532,10.363,10.363,0,0,0-1.866-.108Zm-2.29-1.911h4.163a8.1,8.1,0,0,1,2.147.216,3.755,3.755,0,0,1,1.7,1.042,4.907,4.907,0,0,1,1.079,1.831,8.392,8.392,0,0,1,.369,2.671,7.415,7.415,0,0,1-.347,2.406,4.959,4.959,0,0,1-1.208,2,3.981,3.981,0,0,1-1.6.9,6.823,6.823,0,0,1-2.016.24h-4.286Zm-147.7,11.305h-2.466l-.976-2.574h-4.534l-.94,2.574h-2.421l4.389-11.305h2.419Z" transform="translate(-239.769 -1175.352)"/></g></g></g></svg>