<svg xmlns="http://www.w3.org/2000/svg" width="19.769" height="18.107" viewBox="0 0 19.769 18.107"><defs><style>.a{opacity:0.75;}</style></defs><g class="a" transform="translate(1573.968 -73.443)"><path d="M-1450.89,89.891v-.506q0-6.471-.008-12.942a.982.982,0,0,1,.335-.789c.612-.58,1.195-1.191,1.8-1.783a1.177,1.177,0,0,1,1.822.008q2.592,2.6,5.172,5.212a1.147,1.147,0,0,1,.031,1.758q-4.432,4.4-8.866,8.791C-1450.675,89.7-1450.748,89.764-1450.89,89.891Zm4.82-10.709c.177-.154.326-.269.457-.4.651-.653.7-.547.011-1.233-.455-.452-.454-.453-.905-.012-.693.676-.667.562-.016,1.231C-1446.392,78.9-1446.247,79.021-1446.071,79.182Zm-1.312-1.6c.246-.3.581-.535.585-.774,0-.2-.373-.415-.581-.623-.209.219-.559.424-.583.662C-1447.984,77.053-1447.628,77.294-1447.383,77.586Zm3.395,1.923c-.276-.259-.5-.63-.7-.614-.236.019-.446.368-.667.574.2.21.4.572.613.588S-1444.285,79.741-1443.988,79.509Z" transform="translate(-112.852 0)"/><path d="M-1573.967,88.7q0-3.694,0-7.388c0-.936.422-1.368,1.37-1.371q3.59-.011,7.18,0a1.2,1.2,0,0,1,1.345,1.369q0,7.43,0,14.86a1.17,1.17,0,0,1-1.32,1.332q-3.632,0-7.264,0c-.9,0-1.311-.423-1.311-1.33Q-1573.969,92.44-1573.967,88.7Zm.288,6.826h9.318V81.746h-9.318Zm5.313.969c0-.653,0-.653-.666-.653s-.655,0-.655.669,0,.656.671.655C-1568.365,97.171-1568.365,97.171-1568.366,96.5Zm-.7-15.519c.331,0,.663.009.993-.007.075,0,.146-.092.219-.141-.063-.058-.125-.166-.188-.167q-.973-.019-1.945,0c-.066,0-.129.1-.194.16.068.052.134.145.2.149C-1569.672,80.99-1569.368,80.98-1569.065,80.98Z" transform="translate(0 -5.958)"/><path d="M-1558.574,110.717l.278.258-5.86,5.861-.278-.259Z" transform="translate(-8.743 -34.18)"/><path d="M-1560.01,111.9l.22.209-3.18,3.181-.223-.208Z" transform="translate(-9.88 -35.264)"/></g></svg>