<svg xmlns="http://www.w3.org/2000/svg" width="16.427" height="16.428" viewBox="0 0 16.427 16.428"><defs><style>.a{fill:rgba(0,0,0,0.56);}</style></defs><path class="a" d="M427.194,2614.381h-.962a.883.883,0,0,0-.124-.026,7.715,7.715,0,0,1-3.251-.939,8.1,8.1,0,0,1-4.228-5.819c-.06-.313-.087-.632-.13-.948v-.962a1.1,1.1,0,0,0,.027-.138,7.622,7.622,0,0,1,.939-3.236,8.067,8.067,0,0,1,6.9-4.345,7.526,7.526,0,0,1,4.182.946,8.044,8.044,0,0,1,4.362,6.908,7.679,7.679,0,0,1-1.154,4.56,8.073,8.073,0,0,1-5.63,3.872C427.82,2614.31,427.506,2614.339,427.194,2614.381Zm-.2-.644.044.033a4.713,4.713,0,0,0,.409-.345,3.866,3.866,0,0,0,.738-1.23,14.346,14.346,0,0,0,.932-4.433,21.658,21.658,0,0,0-.028-3.525,14.807,14.807,0,0,0-.747-3.7,4.555,4.555,0,0,0-.9-1.631,4.126,4.126,0,0,0-.416-.347l-.035.037Zm-.568.024v-15.188a1.589,1.589,0,0,0-.64.564,7.043,7.043,0,0,0-1,2.376,17.475,17.475,0,0,0-.519,3.85,18.687,18.687,0,0,0,.651,5.931,6.152,6.152,0,0,0,.866,1.9A1.593,1.593,0,0,0,426.428,2613.761Zm1.641-.2c.06-.023.083-.03.105-.041.12-.058.244-.11.36-.175a5.9,5.9,0,0,0,2.318-2.546,9.537,9.537,0,0,0,1-3.535,10.294,10.294,0,0,0-1.007-5.727,5.99,5.99,0,0,0-1.94-2.306c-.251-.172-.527-.307-.792-.459l-.027.04c.015.026.032.052.046.079a14.277,14.277,0,0,1,.656,1.314,15.813,15.813,0,0,1,.9,4.862,20.524,20.524,0,0,1-.348,5.088,9.684,9.684,0,0,1-1.062,3.071C428.222,2613.326,428.154,2613.425,428.069,2613.558Zm-2.71-14.784c-.073.031-.107.043-.139.058-.11.053-.223.1-.33.163a5.916,5.916,0,0,0-2.316,2.548,9.578,9.578,0,0,0-1,3.52,10.465,10.465,0,0,0,.774,5.251,6.35,6.35,0,0,0,2.163,2.786c.253.177.534.313.8.467l.03-.043a6.433,6.433,0,0,1-.843-1.753,16.616,16.616,0,0,1-.714-3.8,21.02,21.02,0,0,1,.2-5.271A9.738,9.738,0,0,1,425.358,2598.774Zm4.322,14.434a7.627,7.627,0,0,0,.02-14.076c.174.18.37.369.55.572a8.652,8.652,0,0,1,1.888,3.754,11.368,11.368,0,0,1,.147,4.723,9.439,9.439,0,0,1-1.468,3.726A7.063,7.063,0,0,1,429.68,2613.208Zm-5.9.021c-.06-.057-.09-.088-.121-.116a6.773,6.773,0,0,1-1.307-1.613,9.891,9.891,0,0,1-1.292-3.892,11.3,11.3,0,0,1,.268-4.292,8.4,8.4,0,0,1,2.129-3.905c.1-.1.2-.187.317-.3a7.635,7.635,0,0,0,.007,14.116Z" transform="translate(-418.5 -2597.952)"/></svg>