<svg xmlns="http://www.w3.org/2000/svg" width="19.797" height="16.909" viewBox="0 0 19.797 16.909"><defs><style>.a{fill:rgba(0,0,0,0.56);}</style></defs><g transform="translate(0)"><path class="a" d="M-3232.468,972.181l1.9,1.053c1.017.564,2.037,1.123,3.047,1.7a.493.493,0,0,1,.236.337q.017,5.952.006,11.9a.628.628,0,0,1-.037.131c-.143-.072-.277-.135-.407-.207q-2.241-1.243-4.482-2.485a.434.434,0,0,1-.287-.428q.013-5.9.007-11.8C-3232.482,972.34-3232.476,972.293-3232.468,972.181Z" transform="translate(3238.357 -972.141)"/><path class="a" d="M-3309.587,971.617v.419q0,5.735.007,11.47a.507.507,0,0,1-.351.554c-1.511.656-3.013,1.334-4.518,2-.1.042-.2.076-.326.127-.008-.127-.019-.227-.019-.328q0-5.806-.007-11.613a.434.434,0,0,1,.3-.473c1.531-.669,3.056-1.353,4.583-2.032C-3309.82,971.7-3309.722,971.669-3309.587,971.617Z" transform="translate(3314.8 -971.617)"/><path class="a" d="M-3145.311,980.7c.009.159.02.262.02.365,0,2.849,0,5.7.007,8.546,0,.271-.063.383-.35.444a3.205,3.205,0,0,0-2.414,3.844c.02.09.027.183.043.295l-2.5,1.113v-.432q0-5.751-.008-11.5a.505.505,0,0,1,.359-.548C-3148.551,982.138-3146.96,981.43-3145.311,980.7Z" transform="translate(3162.22 -980.055)"/><path class="a" d="M-3106.234,1126.061a27.273,27.273,0,0,1-2.207-2.678,2.264,2.264,0,0,1,.309-2.72,2.325,2.325,0,0,1,2.573-.855,2.456,2.456,0,0,1,1.854,2.075,2.456,2.456,0,0,1-.65,2.166C-3104.936,1124.7-3105.55,1125.332-3106.234,1126.061Zm.023-5.725a1.737,1.737,0,0,0-1.7,1.779,1.734,1.734,0,0,0,1.739,1.745,1.745,1.745,0,0,0,1.7-1.781A1.735,1.735,0,0,0-3106.211,1120.335Z" transform="translate(3123.455 -1109.152)"/><path class="a" d="M-3085.551,1138.687a1.077,1.077,0,0,0-1.068-1.1,1.1,1.1,0,0,0-1.07,1.107,1.084,1.084,0,0,0,1.094,1.114A1.07,1.07,0,0,0-3085.551,1138.687Z" transform="translate(3103.879 -1125.755)"/><path class="a" d="M-3085.551,1138.687a1.07,1.07,0,0,1-1.044,1.12,1.084,1.084,0,0,1-1.094-1.114,1.1,1.1,0,0,1,1.07-1.107A1.077,1.077,0,0,1-3085.551,1138.687Z" transform="translate(3103.879 -1125.755)"/></g></svg>