<svg xmlns="http://www.w3.org/2000/svg" width="16.536" height="20.47" viewBox="0 0 16.536 20.47"><defs><style>.a{fill:rgba(0,0,0,0.57);}</style></defs><g transform="translate(0 0)"><path class="a" d="M-2589.851,996.986c.12-3.122-1.041-5.012-3.422-5.6a4.661,4.661,0,0,0-5.37,2.547,4.64,4.64,0,0,0,1.429,5.686,4.531,4.531,0,0,0,3.9.79,5.19,5.19,0,0,0,3.175-2.416m2.17,13.722a8.2,8.2,0,0,1,1.142-3.488,4.383,4.383,0,0,0,.661-2.634,4.42,4.42,0,0,0-2.11-3.43,23.3,23.3,0,0,0-3.31-1.57.6.6,0,0,0-.436.1,4.628,4.628,0,0,1-4.838,0,.594.594,0,0,0-.434-.093,20.394,20.394,0,0,0-3.266,1.548c-2.287,1.566-2.707,3.81-1.378,6.23a13.562,13.562,0,0,1,.83,1.953,10.608,10.608,0,0,1,.294,1.348m10.756-14.59" transform="translate(2602.686 -991.242)"/></g></svg>